<svg xmlns="http://www.w3.org/2000/svg" viewBox="0 0 167.34 167.32"><defs><style>.cls-1{fill:#181717;}.cls-2{fill:#eceeea;}.cls-3{fill:#1a1919;}.cls-4{fill:#1a191a;}.cls-5{fill:#0e4879;}.cls-6{fill:#3288bf;}.cls-7{fill:#135287;}.cls-8{fill:#1d68a6;}.cls-9{fill:#2e82bb;}.cls-10{fill:#114677;}.cls-11{fill:#2d2c2c;}.cls-12{fill:#313030;}.cls-13{fill:#2c7cb7;}.cls-14{fill:#2f2f2f;}.cls-15{fill:#313131;}.cls-16{fill:#323131;}.cls-17{fill:#302f2f;}.cls-18{fill:#303030;}.cls-19{fill:#175d98;}.cls-20{fill:#265d99;}.cls-21{fill:#246fae;}.cls-22{fill:#135185;}.cls-23{fill:#1b5e98;}.cls-24{fill:#15396e;}.cls-25{fill:#2361a4;}.cls-26{fill:#418fc4;}.cls-27{fill:#226bad;}.cls-28{fill:#6f6e6f;}.cls-29{fill:#aba7a6;}.cls-30{fill:#ecebe8;}.cls-31{fill:#e5e7e5;}.cls-32{fill:#d3d2d3;}.cls-33{fill:#459bc9;}.cls-34{fill:#4096c7;}.cls-35{fill:#2e85bd;}.cls-36{fill:#135a93;}.cls-37{fill:#0f5186;}.cls-38{fill:#2171ae;}.cls-39{fill:#2375b2;}.cls-40{fill:#1966a3;}.cls-41{fill:#1c66a3;}.cls-42{fill:#2c76b3;}.cls-43{fill:#3a86bd;}.cls-44{fill:#74b7d8;}.cls-45{fill:#65b1d7;}.cls-46{fill:#4ea2cf;}.cls-47{fill:#4094c6;}.cls-48{fill:#62b0d6;}.cls-49{fill:#54a5d0;}.cls-50{fill:#84beda;}.cls-51{fill:#3279b5;}.cls-52{fill:#529dcb;}</style></defs><g id="Capa_2" data-name="Capa 2"><g id="Capa_1-2" data-name="Capa 1"><path class="cls-1" d="M63.86,127.26c-1.32,1.9-2.08.53-2.74-.55-6.8-11.3-8.47-23.53-6.61-36.41.17-1.22,1.21-2.91-.14-3.6-1.79-.91-2.42,1.14-3.29,2.24-7.23,9-8.89,19.73-9.12,31.75-4.89-7-6.47-14.31-7.72-21.72-1.31-7.82,1.19-15.1,4.6-23-4.9,1.75-6.63,5.47-9.83,8.37,1.09-6.78,4.62-11.66,8.22-16.53,1.42-1.93,3.89-3.22,3.9-6.06.75-5.82,4.58-8.94,9.33-11.86,5.76-3.55,11.81-6.56,17.5-10.28C74.88,35.1,83,34.83,91,35.93c2.67.37,5.08,1.41,4.23-3-.4-2.1.89-2.64,2.73-1.6a7.34,7.34,0,0,1,2.23,1.95c5.49,7.4,12.61,13,19.86,18.57s11.61,13.16,12.15,22c.41,6.72-.17,13.58-.09,20.41.12,10.46-10.86,17.62-20.25,14.68-1.71-.54-4-1-4.13-3-.1-1.83,2.11-2.25,3.61-2.92a2.84,2.84,0,0,0,1.81-1.53c0-.81-.58-1.18-1.14-1.45-5.25-2.59-21.13,1.38-24.43,6.06a10.39,10.39,0,0,0-1.47,9c.32,1.24.68,2.76-.88,3.5s-2.51-.34-3.55-1.16c-.65-.52-1.13-1.21-1.74-1.76-1-.91-1.18-3.21-3.11-2.52-1.64.59-2.19,2.39-2.54,4-.92,4.35.56,7.76,4.48,10.11,7.93,4.79,16.43,6.89,25.67,5.24a8.17,8.17,0,0,1,3.93-.06c.73.33,1.35.74,1.15,1.7-11,4.59-22,4.27-33.07.2a28.88,28.88,0,0,1-11.41-8.17c-.71-.29-1-1-1.7-1.4C63.72,125.51,63.35,126.47,63.86,127.26Z"/><path class="cls-2" d="M108.5,133c-10,2.06-19.68,1.42-28.76-3.71S70,116.82,78.16,110a43.73,43.73,0,0,0,2.77,4.93,9.93,9.93,0,0,0,5.75,3.74c-4.55-7.38-1.85-12.46,3.36-17a9.36,9.36,0,0,1,5.66-2.4c4.25-.45,8.56-.34,12.74-1.54,3.4-1,5.11,2.24,8.11,3.13-2.33,3.09-5.84,3.2-8.39,5,6.26,3.47,12.34,3.29,17.2-.77,5.15-4.3,7.08-9.91,5.08-16.38a13.3,13.3,0,0,1,.11-9.06c2.53-7-1.12-12.81-4.1-18.66a23.59,23.59,0,0,0-8.55-9.5C110,46.62,103.93,40,98.27,32.81a23.75,23.75,0,0,0-2.4-2.16c.62,3,1.09,5.27,1.58,7.66-1.84.95-3.4-.49-5.06-.82-10.09-2-19.06-.73-27.51,6.07C61,46.7,55.73,48.67,51,51c-5,2.42-7.15,6.72-9.91,10.8L39.7,60.48c-1.3-.79-2.55.47-3.85.06-2.83-.88-1.88-2.08-.33-3.36,3.46-2.07,6.74-4.4,10.08-6.65,10.16-6.34,19.7-13.84,31.7-16.66a26.12,26.12,0,0,1,13.34-.28c4-.32.88-2.79,1.24-4.2A3.85,3.85,0,0,1,92.47,26L95,25.11c3,3.26,6.4,6.06,9.35,9.34a43.47,43.47,0,0,0,13.6,12.71,32.13,32.13,0,0,1,9.52,9.13c2.23,2.67,3.61,5.83,5.12,8.92a22.32,22.32,0,0,1,1.25,16.67c-1.27,4.15,1.66,8,1,12.06-.55,5.69-2.71,10.54-7.45,14a26.25,26.25,0,0,1-6.82,3.36,7.89,7.89,0,0,1-1.52.24,33.81,33.81,0,0,1-7.72-.29,14.48,14.48,0,0,1-2.81-1.13c-2-1.3-4.55-1.83-6.13-3.85-.26-4.25,4.24-2.57,6-4.89-4.19.68-8.2,1-12.18,1.47-5.68.63-8.55,5.57-7.5,12,.82,2.44,2.31,4.64,2.56,7.28a1.69,1.69,0,0,1-1.22,1.59,3.54,3.54,0,0,1-1.41-.07c-2.38-1.41-5.28-1.79-7.43-3.68-.45-.48.15.12-.33-.33-1.11-1-1.94-3.33-3.55-2.66-1.93.81-1.06,3-.71,4.68a6.24,6.24,0,0,0,2.16,3,29.39,29.39,0,0,0,7.08,3.39c2.49.79,4.91,1.82,7.59,1.86,8.43,1.67,16-1.4,23.75-4,1.78-.6,3.45-2.14,5.48-.66-1.17,2.31-2.08,4.9-5.33,5C114.41,131.48,111.62,132.77,108.5,133Z"/><path class="cls-3" d="M47.08,10.83l19.57,9.72c-5.54,2.75-11,4.44-15.81,7.29-4.14,2.44-8.37,4.82-11.46,8.52A20.36,20.36,0,0,1,26,43.8c-5.35.77-10.63,2-15.94,3.06-.18,0-.59-.32-.6-.52s.27-.49.43-.74c4.28-3.9,6.54-9.31,10.33-13.62C27.92,23.27,36.51,15.82,47.08,10.83Z"/><path class="cls-3" d="M103.53,4.05l9.82,22.13c-10.18-5-20.16-7.66-30.72-7.18-5.58.25-10.68-.28-15.55-3.47C63,12.87,58.39,11,54,8.84c1.45-3.2,4.76-3.23,7.42-3.95C73.2,1.73,85.11.29,97.19,3,99.29,3.49,101.49,3.28,103.53,4.05Z"/><path class="cls-3" d="M150.35,36.81c-.49,6.46-3.94,12.09-5.14,18.35-.27,1.42-.79,2.8-1.22,4.26-5.32-11.26-12.48-21.05-22.7-28.47-3.19-2.32-3.74-6.4-5.11-9.84C114.3,16.44,111.72,12,110.7,7c7.44,1.42,13.48,5.75,19.59,9.75A72.89,72.89,0,0,1,150.35,36.81Z"/><path class="cls-3" d="M6,53.62c7.38-3,15.25-3.91,23.62-6.22A67,67,0,0,0,19.8,72c0,.16-.19.32-.18.46,1.54,13.4-8.42,21-15.24,30.18-2.5-3.09-1.92-7-2.21-10.43-.9-10.91-.56-21.8,3.07-32.33C5.93,57.86,6.81,55.84,6,53.62Z"/><path class="cls-3" d="M6.13,113.67c-1.41-1.48-1.62-2.78-.2-4.61,4.31-5.54,8.4-11.27,13-17.54,2.07,12.63,6.48,23.72,14.28,33.3a4.12,4.12,0,0,1,.84,2.21q.59,10.59,1,21.19c0,.88.61,2.31-.52,2.59s-2-.68-2.64-1.69a2.31,2.31,0,0,0-.89-2.59c-10.51-8.6-17.74-19.58-23.1-31.91C7.57,113.81,7.17,113.15,6.13,113.67Z"/><path class="cls-3" d="M164.24,91.12l-17.37,11.7c-1.14-2.4,0-4.12.27-5.91,1.21-7.65,2-15.3.29-23a23.85,23.85,0,0,1,.76-13.36c1.94-5.51,3.19-11.27,5.44-16.69,2.25.23,2.75,2.19,3.51,3.76,5.74,11.79,8.18,24.36,8.5,37.39C165.69,87.13,165.77,89.32,164.24,91.12Z"/><path class="cls-3" d="M41,155.29c-2.09-7.6-2-15.34-1.87-24A68.7,68.7,0,0,0,68.83,147c3.17.79,4.45,3.78,6.51,5.83,3.27,3.25,6.32,6.72,9.46,10.1.15,2.76-1.74,2.63-3.63,2.61a76.26,76.26,0,0,1-33.35-8.13C45.69,156.36,43.76,154.36,41,155.29Z"/><path class="cls-3" d="M94.55,165.33c-6.38-4.55-10.66-11.08-16.69-16.9,12.28.47,23.31-1.21,33.77-6,2.93-1.35,5.8.47,8.71.7,5.06.4,10.08,1.27,15.12,1.95.11,2.63-2.12,3.57-3.72,4.78a80.63,80.63,0,0,1-32.39,14.34A26.27,26.27,0,0,0,94.55,165.33Z"/><path class="cls-4" d="M144.68,140.21c-2.48,2.48-4.9-.17-7.37-.14-5.79.08-11.47-1.11-17.48-2.15,9.15-7,16.81-14.74,21.64-25a6.56,6.56,0,0,1,2.24-2.55c5.78-3.76,11.62-7.41,17.44-11.09,2.93.29,2,2.45,1.62,3.9a76,76,0,0,1-14.12,30C147,135.33,144.43,137,144.68,140.21Z"/><path class="cls-5" d="M126.46,107.18a18.48,18.48,0,0,0,7.22-12.77c.11-2.84,1.56-5.32,2.17-8,1-4.31,1.91-8.66,1.46-13.2-.25-2.5-.55-5.43,2.8-6.57,5,22.78,3.63,43.67-17.55,58.63-7.08,2.53-14,5.53-21.58,6.45a21.25,21.25,0,0,1-8.21-.65c1.1-3.12,3.83-1.84,5.94-2.21,5.05.51,9.19-1.2,12.91-4.67s7.92-6.27,11.21-10.21A16.11,16.11,0,0,0,126.46,107.18Z"/><path class="cls-6" d="M91.76,34.84a46.3,46.3,0,0,0-14.72,0c-6.32.71-12.55.94-18.52,4.23C53,42.17,48.26,45.44,46,51.5l-9.82,6.38c-2.41-1.26-1.95-3-1-5,1.7-3.55,4.15-6.65,5.88-10.18,2.58-2.7,5.17-5.38,8.61-7,3.14-.46,5.74-2.12,8.52-3.53,9.71-4.91,19.81-5.05,30-1.35C89.81,31.41,91.88,32.3,91.76,34.84Z"/><path class="cls-7" d="M140.11,66.65a6.11,6.11,0,0,0-1.65,4.54,37.27,37.27,0,0,1-4.78,23.22,22.56,22.56,0,0,0-1.37-8.21c-.34-.89-.82-2.12-.47-2.8,3.27-6.34,1.59-12.47-.5-18.62a20.62,20.62,0,0,0-.64-8.65c-.62-2.53-2-5.29,0-7.91A49.49,49.49,0,0,1,140.11,66.65Z"/><path class="cls-8" d="M103.28,35c-2.44-3.55-6.82-5.47-8.3-9.84,8.12,2.37,16,5.16,22.72,10.62,2.54,3.82,5.8,7.11,8,11.15,1.72,3.11,3,6.23.82,9.66l-9-8.62c-1.21-6.46-6.13-9.88-10.87-13.51C105.11,33.24,104.56,35.9,103.28,35Z"/><path class="cls-9" d="M91.76,34.84c-6.94-6.34-15.34-5.48-23.64-4.57-4.53.5-8.84,1.81-12.5,5a4.75,4.75,0,0,1-6,.41C57.5,29.94,66,25.74,75.85,25.06c2.71.74,5.48.32,8.21.3,3.67,0,7,.48,8.79,4.19C94,30.69,94,32.3,94.17,33.7,94.54,36.13,93.06,35.48,91.76,34.84Z"/><path class="cls-10" d="M61.05,131c6.32,4.43,13.94,6,20.78,9.22,2.26,2,.73,2.56-1.08,2.27-3.41-.54-6.85-.72-10.25-1.22-8.89-1.07-16.06-6-23.38-10.54-1.75-1.08-1.22-2.86-1-4.48,1.8-.41,2.41,1.3,3.57,2C53.16,130.46,56.79,132,61.05,131Z"/><path class="cls-11" d="M103.53,4.05c-3,2.25-6.14.36-9.07-.12C80.47,1.65,67.08,3.79,54,8.84L50.45,7.19c14.21-5.63,28-8.91,42.61-6.26C96.67,1.59,100.85.28,103.53,4.05Z"/><path class="cls-12" d="M6,53.62c3.82.67,1.44,3.43,1,4.57C3.44,68.5,3,79.12,3.31,89.87c.13,4.27,1.51,8.44,1.07,12.76l-1.21,2.13C-2,91.13-.73,69,6,53.62Z"/><path class="cls-13" d="M41,42.7c2,2.19-1,2.89-1.29,4.4-.73,3.75-5.87,6-3.6,10.78.05.62-2.71,1.25,0,1.84,1.18.25,2.56-.46,3.54.76C34.24,63.87,32,69.86,28.15,74.59c-3.06-1.23-.8-4-1.69-5.87C29.13,58.82,33.57,49.91,41,42.7Z"/><path class="cls-14" d="M164.24,91.12c.31-16.62-2-32.66-10.61-47.28l.85-2.83c4.64,5.53,10.82,21.79,11.87,30.12a125.91,125.91,0,0,1,1,15.14C167.36,88.73,166.71,90.42,164.24,91.12Z"/><path class="cls-15" d="M41,155.29c.61-3.63,2.66-1.45,3.92-.78a81.15,81.15,0,0,0,26,8.92c4,.63,8.12.86,12.2,1.09.53,0,1.12-1,1.68-1.6A8.8,8.8,0,0,1,88,167.21C70.86,168,55.19,164.64,41,155.29Z"/><path class="cls-12" d="M144.68,140.21c-3.15-.5-1.79-1.84-.64-3.23A83.86,83.86,0,0,0,156,119a103.64,103.64,0,0,0,5.84-16.7c.33-1.22.54-2.24-.69-3l5.45-4C163,112.86,156.79,128,144.68,140.21Z"/><path class="cls-16" d="M150.35,36.81c-3-1-4.52-3.8-6.29-6-8-9.85-18.24-16.36-29.6-21.46A30.12,30.12,0,0,1,110.7,7C109.18,5,109.27,4.61,112,5.4c9.44,2.79,17.46,8,24.86,14.25a74.34,74.34,0,0,1,12.68,13C150.49,34,152,35,150.35,36.81Z"/><path class="cls-17" d="M94.55,165.33A3.45,3.45,0,0,1,97.44,163a72.51,72.51,0,0,0,38-18h4.61c-4.81,5.06-10.06,8.3-15.35,11.35-8.67,5-17.79,9-27.95,9.83C95.9,166.3,94.76,167,94.55,165.33Z"/><path class="cls-18" d="M47.08,10.83c-3.91,4.31-9.35,6.52-13.8,10.15A94.26,94.26,0,0,0,14.79,41.41C13.62,43.15,13.08,46,9.91,45.6c5.82-13.38,15.7-23.19,27.56-31.25q2.66-1.8,5.33-3.56C44.23,9.86,45.67,9,47.08,10.83Z"/><path class="cls-12" d="M6.13,113.67c.15-.79.16-2.2.49-2.28,1.83-.44,1.89,1.37,2.28,2.37a84.34,84.34,0,0,0,19.26,28.8c1.37,1.39,3.12,2.39,4.56,3.71s1.68,2.53-.8,2.85C20.05,139.69,10.84,128.31,6.13,113.67Z"/><path class="cls-19" d="M126.55,56.54c1.25-7.76-4.69-12.37-7.92-18.16-.45-.81-2.35-1.18-.92-2.65,4.91,3.55,9.68,7.24,13,12.49.75,3.47.51,7.13,2.24,10.43,1.23,2.37.32,4.43-1.57,6.12Z"/><path class="cls-20" d="M30.25,90c-.18,9.4,2.27,18,4.59,26.78C30.27,110.49,27,103.65,26.07,96,25.86,94.19,28.77,92,30.25,90Z"/><path class="cls-21" d="M46.05,117.3c-.16-3.08-.57-6.16.58-9.15,1.49-1.15,2.65,2,4.19.32q1.47,5.93,2.93,11.86C49.58,123.41,48,120,46.05,117.3Z"/><path class="cls-22" d="M61.05,131c-3.61,2.56-9.74,1.26-13.48-2.88-.53-.59-1-1.25-1.48-1.87l0-4c4.44,1.13,8,4,12.16,5.81A2.74,2.74,0,0,1,61.05,131Z"/><path class="cls-23" d="M58.21,128.08c-4.87-.22-8.8-2.41-12.16-5.82v-5c2.4,1.43,4.16,4.49,7.7,3Z"/><path class="cls-24" d="M70.5,141.26c3.43-.07,6.87-.58,10.27.63,1.63.59,1.39-.67,1.06-1.68,4.67.4,9.29,1.29,14,1.18C87.38,143.49,78.93,144.18,70.5,141.26Z"/><path class="cls-25" d="M26.46,68.72c.56,2,1.13,3.92,1.69,5.87-1.4,5-3.58,9.79-3.36,15.17C23.64,82.59,24.59,75.62,26.46,68.72Z"/><path class="cls-26" d="M50.82,108.47c-1.7,3.86-2.78-.41-4.19-.32a28,28,0,0,1,3.19-10.26C50.22,102.17,50.52,105.32,50.82,108.47Z"/><path class="cls-27" d="M92.85,29.55c-.23.49-.72,1.58-.82,1.29-2.16-6.23-7.4-4.73-12-4.94-1.44-.07-3,.44-4.2-.84,5.57-.37,11.2-1.74,16.61.92C92.6,27.17,92.72,28.36,92.85,29.55Z"/><path class="cls-28" d="M108.5,133c2.77-1.35,5.57-2.64,8.73-2.75a20,20,0,0,1-7.69,3.78Z"/><path class="cls-29" d="M63.86,127.26c-1.27-1.68-2.48-3.38-1.62-5.8,1.76,1.15,2.07,3,2.82,4.62Z"/><path class="cls-30" d="M81.92,103.34l.58-3.67c-2.17-1.5-12.79,12.26-14.89,19-4-4.67-4-4.67,1.92-19.59-3.61,1.5-4.35,2.05-6.33,5.23-1.52,2.45-2.94,5-5,8.51-.35-10.52,1.87-19,7.2-27.35-3.08.06-4.15,2.4-6.49,3.11-1-4.53,1.19-8.48,2.51-13.27a51.05,51.05,0,0,0-21.58,24.91c-1.4-11.39,1.06-21.46,7.65-30.47.79-1.09,3.69-2.77-.69-3.28-1.85-.21-.55-1.77.19-2.53C56.24,54.31,65.52,44.67,81,47c-1.11-2.65-3.86-2.45-5.37-4.64,7-2.74,13.69-1.64,20.44.58,9.54,3.13,16.94,9.43,23.75,16.32,3.54,3.57,3.51,8.95,3.62,13.85,0,1.53-1.29,2.15-2.67,2.47-2.39.56-3.83-.72-4.79-2.6-4-7.8-10.79-12.78-17.44-17.94-.31-.24-.86-.18-2.63-.48,3.83,2.83,3,5.26,1.3,7.71s2.47,9.17-5.83,6.89c-3.63-1-8.06,1.4-12.39-.77,2,3.79,2,3.79,6.71,7.3-2.69,2.08-5.4,4.12-6.72,7.46a44.37,44.37,0,0,1,6.91-.57c3.21.24,6.37,1,1.55,4.92,4.1.2,7.62-.2,11.45,2C91.6,92.4,86.4,97.36,81.92,103.34Z"/><path class="cls-31" d="M103.73,65.65c-3.36,1.61-2.16,4.41-1.49,6.77s2.64,3.6,5.28,3.28c2.8-.34,5.68-1.25,7.28,2.45.31.71,2.11.69,3.12,1.23,1.78.94,4.71-1.53,5.61,1.65,1.75,6.17,6.54,12.5-.52,18.55C116.92,90,104.55,87.17,98.79,76.81c3.34.11,5.27,3.55,9.35,3.63-2.8-2.37-5.2-4-7.12-6.11-3.15-3.44-2.66-7.91.79-9.66,1.11-.57,1.89-.41,1.8,1.09Z"/><path class="cls-32" d="M103.61,65.76c1.25,0,2.73-.64,3.39,1,.54,1.37-.57,1.86-1.44,2.66-2.24,2.07.63,2.55,2,4.74-4.64-2.3-5.36-5-3.83-8.54Z"/><path class="cls-33" d="M87.74,115.35c-2.31-6.24,1.63-13.16,8-13.93,4.24-.52,8.5-.88,12.73-1.4,1.21-.14,2.62-.39,2.93,1,.37,1.54-1.44,1.43-2.32,2-1.93,1.22-5,.35-6,3.23-2.49,4.1-6.35,6.3-10.8,7.6C90.72,114.24,89.06,114.29,87.74,115.35Z"/><path class="cls-34" d="M46,51.5c-.77-2.15-.46-3.75,1.27-5.62,5.68-6.12,12.84-9.31,20.63-11.61,3.24-1,6.06,1.31,9.16.61C65.55,38.31,56.19,45.7,46,51.5Z"/><path class="cls-35" d="M87.74,115.35a13.88,13.88,0,0,1,.53-2.17c6.32.56,10-4.34,14.78-7l5.65,3.11c-.55,3.4-2.72,5.38-5.76,6.66-3.55,1.49-6.73,3.88-10.7,4.34-1.21.14-.56,1.64-1.48,2A23.29,23.29,0,0,1,87.74,115.35Z"/><path class="cls-36" d="M99.66,130.11c-2.28.44-4.79-.78-6.89,1-2.85.15-5.36-1-7.89-2.09.35-2.25,2.07-1.61,3.46-1.66,3.66.57,6.81-1.22,9.73-2.77,6.41-3.42,13.7-5.81,17.39-13,.83-1.6,2.85-.19,4.05-1.13l1.07-.13c4.78,2.11,1.12,4.73-.23,5.9-5.68,4.92-11.22,10.15-18.44,12.91A11.49,11.49,0,0,0,99.66,130.11Z"/><path class="cls-37" d="M99.66,130.11c5.71-4,11.57-7.8,17.08-12.05,2.31-1.78,6.31-3.32,3.84-7.73l5.88-3.15c2.13,4.14-1.64,5.69-3.45,8.22-3.62,5.07-9.09,8-13.55,12.11C106.94,129.83,103.27,130.52,99.66,130.11Z"/><path class="cls-38" d="M90.76,122.26c.23-1-.52-2.12,1.34-2.61a36.31,36.31,0,0,0,6.66-2.92c3.77-1.85,7.86-3.3,9.94-7.43l2.1.75c.43.89,1.52,1.43,1.35,2.63-4.77,7.83-12.48,10.63-20.93,12.08a1.24,1.24,0,0,1-1.49-1.46Z"/><path class="cls-39" d="M103.28,35c.65-2.62,2.13-2.89,4.26-1.57,4.43,2.75,7.14,7.21,10.82,10.71,1.75,1.66-.69,2.52-.85,3.82C111.39,45.1,107.14,40.24,103.28,35Z"/><path class="cls-40" d="M89.73,123.3c9.16,0,16.14-4.25,21.89-11,1.51-.84,2.23-.35,1.95,1.32a5.21,5.21,0,0,1-2.26,3.16c-5.23,4-10.34,8.27-17.1,9.36-2,.33-3.27,2.37-5.44,2-1.32.15-2.8-.45-3.89.81a16.48,16.48,0,0,1-7-3.8c-.22-.78.23-1.55.83-1.34,3.61,1.2,6.94-.67,10.41-.77A.49.49,0,0,1,89.73,123.3Z"/><path class="cls-41" d="M88.77,128.18c1.92-1.91,4.27-2.49,6.91-3.16,6.83-1.73,12.37-5.92,16.91-11.31.9-1.07-.11-1.3-1-1.4-.28-.76-.55-1.51-.82-2.26l8.71.41c-3.91,1.83-5.19,6.26-8.92,8.54a106.15,106.15,0,0,1-20.18,10C90,129.13,89.32,128.47,88.77,128.18Z"/><path class="cls-42" d="M89.12,123.08c-3.25,3.39-7.35,2.18-11.24,2.11a3.15,3.15,0,0,1-2.18-2.55c-.62-2.23-.79-4.08,2.55-3.29,1.1.26,2.26-.52,3.39,0C84,120.92,87.09,120.9,89.12,123.08Z"/><path class="cls-43" d="M81.64,119.39c-1.53.51-2.61,3-4.7,1.07-.38-.34-.88-.48-1,.21a16.07,16.07,0,0,0-.2,2c-1.78-3-1.46-6.43,1.15-7.81C78.46,114,80.37,117.39,81.64,119.39Z"/><path class="cls-44" d="M84.82,93.42c-1,.61-2.06,1.22-3.08,1.84-2.48.25-5.28,2.81-7.18-1-5.41.66-9.33,3.83-13.53,9.07,1.15-10.46,6.49-17.18,12.41-24.59-4.86.78-8,3.32-12.13,4.91.95-5.39,4-9.38,5.79-14.44-2.94.74-4.43,3.5-7.15,3.39-3.44-1.46-3.4-4.09-2.32-7,4.45-12.08,21.75-17.21,32.22-9.65,3.06,2.21,3.54,5.33,3.79,8.66-2.54,2.85-9.25,3.83-13.33,1.81-2.16-1.06-4.19-2.39-7.14-4.1C75.38,67,76.6,71,79.89,73.91c1.71,1.49,1.29,2.49-.07,4a37.53,37.53,0,0,0-6,9.35c4.34-.29,7.74-3,12-2.25-.35,3-4.7,5.38-1,8.49Z"/><path class="cls-45" d="M93.64,64.58c-2.08-8-8-10.66-15.51-10.84-8.32-.21-14.41,3.68-18.68,10.77-1.78,3-1.82,5.52.5,8.08L49.08,81.72c-2.29-1.92-1.94-4.53-1.86-7.07C49.16,70,53.32,67.08,56.53,63L52,62.4c5.24-6.24,10.87-11.12,18.76-12.73,4.28-1.25,8.77.43,13-.92l.12-3c1.62-1.64,3.57-1.3,5.55-1,3.1.52,2.84,2.1,1.34,4.1,1.54,2.65,3.22,5.22,4.6,8C96.9,59.78,94.12,62,93.64,64.58Z"/><path class="cls-46" d="M90.8,48.87c0-1.47,1-3.44-2-3.15a47.49,47.49,0,0,1-4.92,0c-.49-.65-1.4-1.31-1.39-2,0-1.57,1.45-.92,2.24-.86,9.51.79,17.71,4.72,25,10.69.07,2.11,1.95,4.56-1.15,6.07-3.8-2.08-6.82-5.19-10.24-7.77C96.18,50.24,93.89,48.48,90.8,48.87Z"/><path class="cls-47" d="M108.64,59.68c2-1.72-.74-4.33,1.15-6.07,5.71,3.56,10.41,7.87,11.32,15,.2,1.58,1.22,3.62-.58,4.46-2.13,1-2.67-1.28-3.28-2.71C115.36,66,111.14,63.54,108.64,59.68Z"/><path class="cls-48" d="M74.56,94.25c2.13,2.17,4.88,0,7.18,1-4.06,5.78-10.12,9.75-13.67,16L67,110.56Q70.76,102.42,74.56,94.25Z"/><path class="cls-49" d="M47.22,74.65a20,20,0,0,1,1.86,7.07l-6.63,8.77A25.4,25.4,0,0,1,47.22,74.65Z"/><path class="cls-50" d="M84.77,93.48c2.44-1,3.72-4.31,7.58-3.59a64,64,0,0,1-5.84,5.23c-2.83,2-1.14-1.1-1.69-1.7Z"/><path class="cls-44" d="M83.79,48.75c-4.21,2.15-8.7.49-13,.92C75,47.63,79.48,49.54,83.79,48.75Z"/><path class="cls-51" d="M118.67,88.44c1.24.22,2.33,1.16,3.74.65,1.19-.44,1.87.21,2,1.37s.45,2.73-.5,3.72c-.77.81-1.76-.13-2.67-.32-2.32-.48-2.71-2.57-3.75-4.13C117.15,88.63,117.46,88.12,118.67,88.44Z"/><path class="cls-52" d="M118.67,88.44l-1.19,1.29-9.08-5.47C114,80.71,115.64,86.18,118.67,88.44Z"/></g></g></svg>